<?xml version="1.0" standalone="no"?>
<!DOCTYPE svg PUBLIC "-//W3C//DTD SVG 20010904//EN"
 "http://www.w3.org/TR/2001/REC-SVG-20010904/DTD/svg10.dtd">
<svg version="1.0" xmlns="http://www.w3.org/2000/svg"
 width="512.000000pt" height="512.000000pt" viewBox="0 0 512.000000 512.000000"
 preserveAspectRatio="xMidYMid meet">

<g transform="translate(0.000000,512.000000) scale(0.100000,-0.100000)"
fill="#fff" stroke="none">
<path d="M2325 4868 c-692 -69 -1333 -462 -1711 -1048 -498 -771 -497 -1763 4
-2525 101 -154 175 -245 303 -374 129 -128 220 -202 374 -303 912 -599 2136
-470 2907 305 670 675 862 1680 487 2556 -231 538 -679 985 -1220 1214 -357
152 -762 214 -1144 175z m478 -163 c265 -31 497 -101 732 -220 957 -484 1411
-1592 1071 -2609 -162 -485 -489 -895 -927 -1162 -613 -374 -1391 -414 -2044
-105 -989 469 -1472 1612 -1119 2647 327 958 1286 1566 2287 1449z"/>
<path d="M2459 4052 c-30 -15 -342 -244 -694 -508 -714 -536 -689 -513 -689
-630 0 -52 5 -71 30 -111 44 -71 101 -102 202 -110 l82 -6 0 -526 c0 -441 2
-536 15 -586 42 -158 162 -278 320 -320 89 -23 1581 -23 1670 0 158 42 278
162 320 320 13 50 15 145 15 586 l0 526 81 6 c62 5 92 13 126 33 53 31 98 97
107 157 8 54 -15 131 -52 173 -42 49 -1301 988 -1350 1007 -62 25 -120 22
-183 -11z m778 -619 c357 -269 644 -491 648 -502 7 -24 -8 -57 -35 -71 -10 -5
-68 -10 -128 -10 -98 0 -111 -2 -128 -21 -18 -20 -19 -49 -24 -623 l-5 -601
-30 -53 c-32 -59 -66 -91 -129 -125 -37 -20 -58 -22 -223 -25 l-183 -4 0 438
c0 306 -4 448 -12 476 -15 50 -78 122 -132 151 -39 21 -52 22 -296 22 -244 0
-257 -1 -296 -22 -54 -29 -117 -101 -132 -151 -8 -28 -12 -170 -12 -476 l0
-438 -182 4 c-166 3 -187 5 -224 25 -63 34 -97 66 -129 125 l-30 53 -5 601
c-5 574 -6 603 -24 623 -17 19 -30 21 -133 21 -108 0 -115 1 -138 25 -30 29
-31 45 -7 74 9 11 303 235 652 496 549 411 639 475 665 472 22 -2 211 -139
672 -484z m-447 -1118 c16 -8 34 -24 40 -34 6 -13 10 -174 10 -450 l0 -431
-280 0 -280 0 0 431 c0 275 4 437 10 449 23 44 54 49 268 50 162 0 209 -3 232
-15z"/>
</g>
</svg>
