<?xml version="1.0" standalone="no"?>
<!DOCTYPE svg PUBLIC "-//W3C//DTD SVG 20010904//EN"
 "http://www.w3.org/TR/2001/REC-SVG-20010904/DTD/svg10.dtd">
<svg version="1.0" xmlns="http://www.w3.org/2000/svg"
 width="512.000000pt" height="512.000000pt" viewBox="0 0 512.000000 512.000000"
 preserveAspectRatio="xMidYMid meet">

<g transform="translate(0.000000,512.000000) scale(0.100000,-0.100000)"
fill="#FFF" stroke="none">
<path d="M341 5109 c-165 -32 -299 -168 -331 -338 -14 -74 -14 -4348 0 -4422
33 -174 165 -306 339 -339 74 -14 4348 -14 4422 0 174 33 306 165 339 339 14
74 14 4348 0 4422 -33 174 -165 306 -339 339 -67 12 -4365 12 -4430 -1z m4464
-185 c51 -28 91 -68 119 -119 l21 -40 0 -2205 0 -2205 -21 -40 c-28 -51 -68
-91 -119 -119 -40 -21 -46 -21 -718 -24 l-677 -3 2 768 3 768 428 3 427 2 0
510 0 510 -430 0 -430 0 0 214 c0 124 4 226 10 242 21 54 11 53 488 54 l442 0
0 516 0 515 -507 -3 -508 -4 -97 -26 c-443 -121 -756 -461 -833 -906 -11 -60
-15 -161 -15 -343 l0 -259 -340 0 -340 0 0 -510 0 -510 340 0 340 0 0 -770 0
-770 -1017 2 -1018 3 -40 21 c-51 28 -91 68 -119 119 l-21 40 -3 2184 c-1
1407 1 2196 8 2220 13 51 56 113 96 140 77 53 -57 50 2299 48 l2190 -2 40 -21z
m-625 -1169 l0 -345 -367 0 c-395 -1 -410 -3 -477 -54 -19 -14 -47 -52 -63
-83 l-28 -58 -3 -327 -3 -328 430 0 431 0 0 -340 0 -340 -430 0 -430 0 0 -855
0 -855 -340 0 -340 0 0 855 0 855 -340 0 -340 0 0 340 0 340 339 0 339 0 4
373 c4 341 6 378 25 448 97 349 347 601 683 690 90 23 152 27 528 28 l382 1 0
-345z"/>
</g>
</svg>
